<?xml version="1.0" encoding="UTF-8"?>
<svg width="40px" height="40px" viewBox="0 0 40 40" version="1.1" xmlns="http://www.w3.org/2000/svg" xmlns:xlink="http://www.w3.org/1999/xlink">
    <!-- Generator: Sketch 52.5 (67469) - http://www.bohemiancoding.com/sketch -->
    <title>Combined Shape</title>
    <desc>Created with Sketch.</desc>
    <defs>
        <linearGradient x1="50%" y1="13.9198985%" x2="50%" y2="100%" id="linearGradient-1">
            <stop stop-color="#FF78BA" offset="0%"></stop>
            <stop stop-color="#FF2626" offset="100%"></stop>
        </linearGradient>
    </defs>
    <g id="Symbols" stroke="none" stroke-width="1" fill="none" fill-rule="evenodd">
        <g id="GNB/Home" transform="translate(-170.000000, -33.000000)" fill="url(#linearGradient-1)" fill-rule="nonzero">
            <g id="Group" transform="translate(170.000000, 33.000000)">
                <path d="M20,40 C8.954305,40 0,31.045695 0,20 C0,8.954305 8.954305,0 20,0 C31.045695,0 40,8.954305 40,20 C40,31.045695 31.045695,40 20,40 Z M31.5479897,13.330601 C29.242205,9.34676539 24.9340878,6.66666667 20,6.66666667 C15.0606213,6.66666667 10.2695288,10.1822861 8.44459956,13.3434213 C8.42762112,13.3728313 12.2794213,17.8139131 20,26.6666667 C27.7036066,17.7845031 31.5529366,13.3391479 31.5479897,13.330601 Z" id="Combined-Shape"></path>
            </g>
        </g>
    </g>
</svg>