<?xml version="1.0" encoding="utf-8"?>
<!-- Generator: Adobe Illustrator 16.0.0, SVG Export Plug-In . SVG Version: 6.00 Build 0)  -->
<!DOCTYPE svg PUBLIC "-//W3C//DTD SVG 1.1//EN" "http://www.w3.org/Graphics/SVG/1.1/DTD/svg11.dtd">
<svg version="1.1" xmlns="http://www.w3.org/2000/svg" xmlns:xlink="http://www.w3.org/1999/xlink" x="0px" y="0px" width="16px"
	 height="16px" viewBox="0 0 16 16" enable-background="new 0 0 16 16" xml:space="preserve">
<g id="Background_xA0_Image_1_">
</g>
<g id="Row_5_1_">
</g>
<g id="Row_4_1_">
</g>
<g id="Row_3_1_">
</g>
<g id="Row_2_1_">
</g>
<g id="Row_1_1_">
	<g id="magnifying_glass">
		<g>
			<path fill="rgba(255,255,255,.7)" d="M15.721,14.363L9.158,7.782C9.692,6.987,10.005,6.03,10.005,5c0-2.762-2.239-5-5.002-5
				C2.239,0,0,2.238,0,5s2.239,5,5.003,5c1.039,0,2.005-0.317,2.805-0.86l6.561,6.579c0.373,0.375,0.979,0.375,1.353,0
				C16.094,15.345,16.094,14.737,15.721,14.363z M5.003,8C3.345,8,2.001,6.657,2.001,5s1.344-3,3.002-3C6.66,2,8.004,3.343,8.004,5
				S6.66,8,5.003,8z"/>
		</g>
	</g>
</g>
</svg>
