<svg xmlns="http://www.w3.org/2000/svg" xmlns:xlink="http://www.w3.org/1999/xlink" width="68" height="52" viewBox="0 0 68 52">
  <defs>
    <style>
      .cls-1 {
        fill-rule: evenodd;
        filter: url(#filter);
      }
    </style>
    <filter id="filter" x="340" y="870" width="68" height="52" filterUnits="userSpaceOnUse">
      <feFlood result="flood" flood-color="#415560"/>
      <feComposite result="composite" operator="in" in2="SourceGraphic"/>
      <feBlend result="blend" in2="SourceGraphic"/>
    </filter>
  </defs>
  <path id="camera.svg" class="cls-1" d="M402.559,878.211H391.31l-6.539-6.6c-0.008-.008-0.015-0.014-0.022-0.022l-0.012-.011h0A5.4,5.4,0,0,0,380.913,870h-13.6a5.394,5.394,0,0,0-3.985,1.769l0-.016-6.405,6.458h-11.48a5.457,5.457,0,0,0-5.44,5.473v32.842a5.458,5.458,0,0,0,5.44,5.475h57.12A5.459,5.459,0,0,0,408,916.526V883.684A5.458,5.458,0,0,0,402.559,878.211Zm2.721,38.315a2.733,2.733,0,0,1-2.721,2.737h-57.12a2.733,2.733,0,0,1-2.72-2.737V883.684a2.731,2.731,0,0,1,2.72-2.736h12.608l0.8-.8,3.292-3.319,0.066,0.2,3.123-3.4a2.676,2.676,0,0,1,1.987-.89h13.6a2.714,2.714,0,0,1,1.931.81l6.54,6.6,0.8,0.8h12.378a2.732,2.732,0,0,1,2.721,2.736v32.842ZM374,880.948a17.789,17.789,0,1,0,17.68,17.786A17.732,17.732,0,0,0,374,880.948Zm0,32.841a15.053,15.053,0,1,1,14.961-15.055A15.023,15.023,0,0,1,374,913.789Zm0-27.368a12.316,12.316,0,1,0,12.24,12.313A12.276,12.276,0,0,0,374,886.421Zm0,21.895a9.579,9.579,0,1,1,9.52-9.582A9.563,9.563,0,0,1,374,908.316Z" transform="translate(-340 -870)"/>
</svg>
