<svg xmlns="http://www.w3.org/2000/svg" viewBox="0 0 400 400"><defs><style>.cls-1{fill:#ff9787;}.cls-2{fill:#7f634f;}.cls-3{fill:#775e4d;}.cls-4{fill:#ffba99;}.cls-5{fill:#ffc6b0;}.cls-6{fill:#ebf2dd;}.cls-7{fill:#f9f9f9;}.cls-8{fill:#634f42;}.cls-9{fill:#a5968e;}.cls-10{fill:#ed9f83;}</style></defs><title>heartbeatArtboard 5 copy</title><g id="Layer_1" data-name="Layer 1"><rect class="cls-1" width="400" height="400"/></g><g id="Layer_2" data-name="Layer 2"><path class="cls-2" d="M194.31,321.63l-2.76-36.74-3,.22,2.75,36.66-.25.22c-4,2-8,4-9,5s-3,3-2,5,3,3,6,1a29.43,29.43,0,0,0,5-4c1-1,5-2,5-4A4.8,4.8,0,0,0,194.31,321.63Z"/><path class="cls-2" d="M218.06,326a35.42,35.42,0,0,0-7.19-4.58l3.68-43.29-3-.25-3.76,44.19c-.79.32-1,2.12-1,3.93,0,2,4,3,5,4a12.28,12.28,0,0,0,5,4,3.87,3.87,0,0,0,5.27-2C223.06,330,219.06,327,218.06,326Z"/><path class="cls-3" d="M194.31,321.63l-1-13.63-1.73-23.11L191,293c0,2,3.07,30.67,3,32-.09,1.75-7,6-9,7-1.26.63-4.94,0-4.94,0,1,2,3,3,6,1a29.43,29.43,0,0,0,5-4c1-1,5-2,5-4A4.8,4.8,0,0,0,194.31,321.63Z"/><path class="cls-3" d="M218,333c-.93-.93-9-7-9-9l4-46-1.44-.13-3.76,44.19c-.79.32-1,2.12-1,3.93,0,2,4,3,5,4a12.28,12.28,0,0,0,5,4,3.87,3.87,0,0,0,5.27-2S219,334,218,333Z"/><path class="cls-4" d="M209.93,158H190.07L144.14,275.86S169.15,292,200,292s55.86-16.14,55.86-16.14Z"/><path class="cls-5" d="M209.93,158H201.5s14.38,34.52,22,65c5,20,6,25,7,46,.55,11.46-15.24,21.75-14,21.53a117.15,117.15,0,0,0,39.36-14.67Z"/><circle class="cls-6" cx="199.86" cy="129.88" r="47.79"/><path class="cls-7" d="M247.89,127.65a47.79,47.79,0,0,1-45.6,49.89S214.44,173.93,222,164c6.06-8,10.68-19.83,10-35-.54-11.94-4.11-23.09-9-30a43,43,0,0,0-25-16.95A47.79,47.79,0,0,1,247.89,127.65Z"/><ellipse class="cls-2" cx="181.38" cy="132.66" rx="2.48" ry="4.34"/><ellipse class="cls-2" cx="218.62" cy="132.66" rx="2.48" ry="4.34"/><path class="cls-8" d="M221.1,132.66c0,2.4-1.11,4.34-2.48,4.34s-2.48-1.95-2.48-4.34,1.11,1.86,2.48,1.86S221.1,130.26,221.1,132.66Z"/><path class="cls-8" d="M183.86,132.66c0,2.4-1.11,4.34-2.48,4.34s-2.48-1.95-2.48-4.34,1.11,1.86,2.48,1.86S183.86,130.26,183.86,132.66Z"/><ellipse class="cls-9" cx="219.24" cy="132.03" rx="0.62" ry="1.24"/><ellipse class="cls-9" cx="182" cy="132.03" rx="0.62" ry="1.24"/><g id="Row_5" data-name="Row 5"><g id="heart"><path class="cls-10" d="M209.44,214.55a5.36,5.36,0,0,0-7.55,0L200,216.43l-1.89-1.88a5.36,5.36,0,0,0-7.55,0,5.28,5.28,0,0,0,0,7.5l8.49,11.18a1.34,1.34,0,0,0,1.89,0l8.49-11.18A5.28,5.28,0,0,0,209.44,214.55Zm-1.89,5.63L200,230.42l-7.55-10.25a2.64,2.64,0,0,1,0-3.75,2.68,2.68,0,0,1,3.77,0l2.83,2.81a1.34,1.34,0,0,0,1.89,0l2.83-2.81a2.68,2.68,0,0,1,3.78,0A2.64,2.64,0,0,1,207.55,220.18Z"/></g></g></g></svg>